<!DOCTYPE svg PUBLIC "-//W3C//DTD SVG 1.1//EN" "http://www.w3.org/Graphics/SVG/1.1/DTD/svg11.dtd">
<!-- Uploaded to: SVG Repo, www.svgrepo.com, Transformed by: SVG Repo Mixer Tools -->
<svg width="800px" height="800px" viewBox="-4.64 -4.64 25.28 25.28" xmlns="http://www.w3.org/2000/svg" fill="none" stroke="#ffffff" stroke-width="0.00016">
<g id="SVGRepo_bgCarrier" stroke-width="0">
<path transform="translate(-4.64, -4.64), scale(1.58)" fill="#7ed0ec" d="M9.166.33a2.25 2.25 0 00-2.332 0l-5.25 3.182A2.25 2.25 0 00.5 5.436v5.128a2.25 2.25 0 001.084 1.924l5.25 3.182a2.25 2.25 0 002.332 0l5.25-3.182a2.25 2.25 0 001.084-1.924V5.436a2.25 2.25 0 00-1.084-1.924L9.166.33z" strokewidth="0"/>
</g>
<g id="SVGRepo_tracerCarrier" stroke-linecap="round" stroke-linejoin="round"/>
<g id="SVGRepo_iconCarrier">
<path fill="#ffffff" d="M15 3.622v8.512L11.5 15l-5.425-1.975v1.958L3.004 10.97l8.951.7V4.005L15 3.622zm-2.984.428L6.994 1v2.001L2.382 4.356 1 6.13v4.029l1.978.873V5.869l9.038-1.818z"/>
</g>
</svg>