<?xml version="1.0" encoding="UTF-8"?>
<svg version="1.1" xmlns="http://www.w3.org/2000/svg" width="512" height="512">
<path d="M0 0 C0.66 0 1.32 0 2 0 C3.10644531 1.48681641 3.10644531 1.48681641 4.328125 3.6015625 C4.79065674 4.39014648 5.25318848 5.17873047 5.72973633 5.99121094 C6.23142334 6.86036133 6.73311035 7.72951172 7.25 8.625 C11.6399146 16.08872331 16.13828023 23.46085982 20.8125 30.75 C27.66508351 41.45508297 34.42063607 52.2182042 41.13769531 63.00878906 C42.39907267 65.0347979 43.66147349 67.06016985 44.92480469 69.08496094 C46.76475293 72.03433122 48.60161456 74.98559949 50.4375 77.9375 C50.99961182 78.83799072 51.56172363 79.73848145 52.14086914 80.66625977 C52.64996826 81.48666748 53.15906738 82.3070752 53.68359375 83.15234375 C54.13275146 83.87413818 54.58190918 84.59593262 55.04467773 85.33959961 C56 87 56 87 56 88 C48.41 88 40.82 88 33 88 C33 132.88 33 177.76 33 224 C17.16 224 1.32 224 -15 224 C-15.33 228.29 -15.66 232.58 -16 237 C-16.59871251 240.25799392 -17.22453731 243.41638263 -18 246.625 C-18.17789062 247.39972656 -18.35578125 248.17445313 -18.5390625 248.97265625 C-19.24923484 252.03063714 -20.00679495 255.02038485 -21 258 C-12.70662499 258.11427879 -7.48607433 256.01858004 -0.62890625 251.3984375 C2 250 2 250 3.89970398 250.17523193 C6.62579876 251.24574576 8.14610775 252.74335752 10.23364258 254.79785156 C11.05741898 255.6024884 11.88119537 256.40712524 12.72993469 257.23614502 C13.60925156 258.11212341 14.48856842 258.98810181 15.39453125 259.890625 C16.30128098 260.78738953 17.2080307 261.68415405 18.14225769 262.60809326 C20.05685057 264.50749285 21.96769071 266.41000371 23.8737793 268.31787109 C26.31797297 270.76237022 28.78218113 273.18555329 31.25217152 275.60394669 C33.60474354 277.91517256 35.93577462 280.2479252 38.26953125 282.578125 C39.15896927 283.44600647 40.04840729 284.31388794 40.96479797 285.20806885 C42.17682137 286.43393707 42.17682137 286.43393707 43.41333008 287.68457031 C44.13184647 288.39881165 44.85036285 289.11305298 45.59065247 289.84893799 C47 292 47 292 46.81230164 294.62884521 C45.88709498 297.3295762 44.59683768 299.24413459 42.9375 301.5625 C39.35411858 307.35635285 38.9328732 312.33045753 40 319 C41.75191002 324.88836424 44.88221193 328.55533495 50 332 C54.82852814 334.26183599 59.87012999 335.53432285 65 337 C65 357.46 65 377.92 65 399 C62.69 399.66 60.38 400.32 58 401 C50.57819013 403.17353003 45.20390863 406.44530867 41.0625 413.125 C38.85190641 419.53149734 38.62490847 426.17286534 41.60546875 432.30078125 C42.8713843 434.37021206 44.18931992 436.40907217 45.56640625 438.40625 C47 441 47 441 46.82696533 442.89750671 C45.75457955 445.62396188 44.25739861 447.14533945 42.20214844 449.23364258 C41.3975116 450.05741898 40.59287476 450.88119537 39.76385498 451.72993469 C38.88787659 452.60925156 38.01189819 453.48856842 37.109375 454.39453125 C36.21261047 455.30128098 35.31584595 456.2080307 34.39190674 457.14225769 C32.49250715 459.05685057 30.58999629 460.96769071 28.68212891 462.8737793 C26.23762978 465.31797297 23.81444671 467.78218113 21.39605331 470.25217152 C19.08482744 472.60474354 16.7520748 474.93577462 14.421875 477.26953125 C13.55399353 478.15896927 12.68611206 479.04840729 11.79193115 479.96479797 C10.56606293 481.17682137 10.56606293 481.17682137 9.31542969 482.41333008 C8.60118835 483.13184647 7.88694702 483.85036285 7.15106201 484.59065247 C5 486 5 486 2.37115479 485.81230164 C-0.3295762 484.88709498 -2.24413459 483.59683768 -4.5625 481.9375 C-10.36019438 478.35174267 -15.32677224 477.94002598 -22 479 C-27.24959975 480.50617711 -31.33504294 483.48179925 -34.75 487.72265625 C-36.91365261 491.66456086 -37.63256883 495.91754805 -38.45703125 500.3046875 C-39 503 -39 503 -40 504 C-41.93306498 504.09396057 -43.86958838 504.11743517 -45.80493164 504.11352539 C-47.04614273 504.11344986 -48.28735382 504.11337433 -49.56617737 504.11329651 C-50.9308374 504.10818911 -52.29549702 504.1029731 -53.66015625 504.09765625 C-55.04878183 504.095792 -56.43740807 504.09436813 -57.82603455 504.09336853 C-61.48721115 504.08954387 -65.1483483 504.07971403 -68.80950928 504.06866455 C-72.54292263 504.05844932 -76.27634234 504.05387067 -80.00976562 504.04882812 C-87.33986177 504.03809171 -94.66992536 504.02101591 -102 504 C-102.47518066 502.33517578 -102.47518066 502.33517578 -102.95996094 500.63671875 C-105.45214643 491.92225979 -108.08628512 485.31141655 -115.875 480.0625 C-121.40665165 478.17205044 -121.40665165 478.17205044 -127 479 C-129.67627339 481.2710473 -131.98602897 483.75035705 -134.3671875 486.328125 C-141.11606969 493.17713897 -150.10287906 497.56933049 -159 501 C-159.83015625 501.32097656 -160.6603125 501.64195312 -161.515625 501.97265625 C-179.68779122 507.68466756 -200.95921742 504.93084175 -217.6875 496.4375 C-234.62748333 487.21944639 -247.04515528 471.62933773 -252.84936523 453.32080078 C-254.96559958 445.70135211 -255.48773904 438.50796171 -255.4375 430.625 C-255.45748047 429.48933594 -255.47746094 428.35367187 -255.49804688 427.18359375 C-255.49432244 420.82970534 -255.35708652 416.77618921 -251 412 C-246.42788179 408.22303279 -245.24601419 408 -239 408 C-239 402.72 -239 397.44 -239 392 C-240.98 392 -242.96 392 -245 392 C-249.52273111 389.64817982 -253.11344852 386.81510024 -255 382 C-255.48493187 377.6965081 -255.37687737 373.44859022 -255.25 369.125 C-255.23195312 367.9596875 -255.21390625 366.794375 -255.1953125 365.59375 C-255.1483382 362.72831751 -255.08266293 359.86458832 -255 357 C-255.825 356.7525 -256.65 356.505 -257.5 356.25 C-292.36843504 343.79698748 -321.39041544 312.80170765 -337 280 C-345.63692554 260.48135788 -350.6765018 240.45226086 -351.65625 219.09375 C-352.02294561 215.7934895 -352.5636813 212.4363187 -355 210 C-359.54459833 209.36534112 -359.54459833 209.36534112 -363.63427734 211.14501953 C-365.23440113 212.72578493 -366.72167705 214.35650319 -368.1875 216.0625 C-370.0563459 218.20205547 -371.88958839 220.07413778 -374 222 C-377.83445949 221.81361744 -379.78540136 219.60528937 -382.41723633 217.00268555 C-383.28105423 216.15477951 -384.14487213 215.30687347 -385.03486633 214.43327332 C-385.95793076 213.51041031 -386.88099518 212.5875473 -387.83203125 211.63671875 C-388.79248699 210.68336403 -389.75324062 209.73030932 -390.71427917 208.77754211 C-392.72416586 206.78109206 -394.72802549 204.77881203 -396.72827148 202.77270508 C-399.2951837 200.19988395 -401.87990878 197.6458161 -404.46986866 195.09622478 C-406.45759449 193.13431044 -408.43377475 191.16107935 -410.40680504 189.18439674 C-411.81707406 187.7766492 -413.23842607 186.38003307 -414.65986633 184.98356628 C-415.50792343 184.12620377 -416.35598053 183.26884125 -417.22973633 182.38549805 C-417.9837825 181.63350632 -418.73782867 180.88151459 -419.51472473 180.10673523 C-421 178 -421 178 -420.89213562 175.8853302 C-419.20642635 172.32295859 -415.81232817 169.87152178 -412.86132812 167.33007812 C-409.94590046 164.6286268 -409.03344169 163.26837662 -408.53515625 159.26953125 C-408.6771616 155.92248163 -408.6771616 155.92248163 -411 154 C-417.49987431 152.37503142 -424.31313048 152.41792934 -431 152 C-431 130.88 -431 109.76 -431 88 C-423.08 87.505 -423.08 87.505 -415 87 C-410.4158037 85.54711014 -410.4158037 85.54711014 -409 84 C-408.36534112 79.45540167 -408.36534112 79.45540167 -410.14501953 75.36572266 C-411.72578493 73.76559887 -413.35650319 72.27832295 -415.0625 70.8125 C-417.20205547 68.9436541 -419.07413778 67.11041161 -421 65 C-420.81361744 61.16554051 -418.60528937 59.21459864 -416.00268555 56.58276367 C-414.73082649 55.28703682 -414.73082649 55.28703682 -413.43327332 53.96513367 C-412.51041031 53.04206924 -411.5875473 52.11900482 -410.63671875 51.16796875 C-409.68336403 50.20751301 -408.73030932 49.24675938 -407.77754211 48.28572083 C-405.78109206 46.27583414 -403.77881203 44.27197451 -401.77270508 42.27172852 C-399.19988395 39.7048163 -396.6458161 37.12009122 -394.09622478 34.53013134 C-392.13431044 32.54240551 -390.16107935 30.56622525 -388.18439674 28.59319496 C-386.7766492 27.18292594 -385.38003307 25.76157393 -383.98356628 24.34013367 C-383.12620377 23.49207657 -382.26884125 22.64401947 -381.38549805 21.77026367 C-380.63350632 21.0162175 -379.88151459 20.26217133 -379.10673523 19.48527527 C-377 18 -377 18 -374.8853302 18.10786438 C-371.32295859 19.79357365 -368.87152178 23.18767183 -366.33007812 26.13867188 C-363.6286268 29.05409954 -362.26837662 29.96655831 -358.26953125 30.46484375 C-354.92248163 30.3228384 -354.92248163 30.3228384 -353 28 C-351.37503142 21.50012569 -351.41792934 14.68686952 -351 8 C-329.88 8 -308.76 8 -287 8 C-286.67 13.28 -286.34 18.56 -286 24 C-284.54711014 28.5841963 -284.54711014 28.5841963 -283 30 C-278.45540167 30.63465888 -278.45540167 30.63465888 -274.36572266 28.85498047 C-272.76559887 27.27421507 -271.27832295 25.64349681 -269.8125 23.9375 C-267.9436541 21.79794453 -266.11041161 19.92586222 -264 18 C-260.34498781 18.21869685 -258.65631887 20.02941325 -256.23217773 22.61767578 C-255.14470497 23.76358688 -255.14470497 23.76358688 -254.03526306 24.93264771 C-253.25921219 25.76182709 -252.48316132 26.59100647 -251.68359375 27.4453125 C-250.01636164 29.17972042 -248.3476959 30.91275117 -246.67773438 32.64453125 C-244.05211583 35.38138193 -241.4368408 38.12570447 -238.84545898 40.89501953 C-236.33969435 43.56456119 -233.79716763 46.19413271 -231.24609375 48.8203125 C-230.48421249 49.65354034 -229.72233124 50.48676819 -228.93736267 51.34524536 C-224.85835418 55.57767843 -224.85835418 55.57767843 -219.42950439 57.2883606 C-216.57821652 57.01397413 -213.81805576 56.50953042 -211 56 C-208.94295843 55.89420971 -206.88334687 55.83145772 -204.82373047 55.80712891 C-203.74404999 55.79106598 -202.66436951 55.77500305 -201.55197144 55.75845337 C-196.62239106 55.71268379 -191.69292839 55.67289498 -186.76318359 55.64990234 C-184.19603333 55.63346072 -181.62892654 55.60633044 -179.06201172 55.56787109 C-148.7181279 55.1176651 -121.64788676 60.42474714 -95 75 C-94.35788574 75.34933594 -93.71577148 75.69867188 -93.05419922 76.05859375 C-83.40525804 81.38147517 -75.19117853 87.65843839 -67 95 C-66.154375 95.72445312 -65.30875 96.44890625 -64.4375 97.1953125 C-57.16206005 103.4630057 -51.30034602 110.46041249 -45.5625 118.125 C-45.13211426 118.69162354 -44.70172852 119.25824707 -44.25830078 119.84204102 C-39.51097973 126.29765835 -36.0613332 132.89266689 -32 140 C-31.67 122.84 -31.34 105.68 -31 88 C-38.59 88 -46.18 88 -54 88 C-49.07872565 78.5675575 -43.43932626 69.68461923 -37.72558594 60.71875 C-34.68771505 55.9324271 -31.68864385 51.12190526 -28.6875 46.3125 C-27.42189542 44.2851435 -26.1562702 42.25779989 -24.890625 40.23046875 C-24.25447266 39.21130371 -23.61832031 38.19213867 -22.96289062 37.14208984 C-20.95165981 33.92261962 -18.93719636 30.70519226 -16.921875 27.48828125 C-16.25454346 26.42246826 -15.58721191 25.35665527 -14.8996582 24.25854492 C-13.63326809 22.23613394 -12.36622575 20.21413115 -11.09838867 18.19262695 C-10.51806885 17.26538818 -9.93774902 16.33814941 -9.33984375 15.3828125 C-8.78280762 14.49368164 -8.22577148 13.60455078 -7.65185547 12.68847656 C-5.44766166 9.101042 -3.34642663 5.45565028 -1.26391602 1.79638672 C-0.84682373 1.2035791 -0.42973145 0.61077148 0 0 Z M-332.375 111.625 C-334.57239587 116.18882219 -334.82205465 120.01931594 -334 125 C-332.92938707 127.53144926 -331.86795795 128.91228229 -330 131 C-329.34 131 -328.68 131 -328 131 C-326.72359257 129.25617577 -325.52985118 127.45159728 -324.375 125.625 C-321.0403038 120.46416065 -317.46435517 115.73806211 -313.46875 111.05859375 C-311.70960012 109.0144502 -311.70960012 109.0144502 -312 106 C-319.75917311 102.12041344 -327.05891536 105.74932751 -332.375 111.625 Z M-73.87890625 334.61083984 C-84.61359147 344.22787817 -98.03595459 350.8931426 -111 357 C-111.50850919 371.35125939 -109.65691719 383.44231132 -100.3125 394.75 C-93.44910531 402.06663773 -85.2539061 406.44667086 -75.203125 407.3359375 C-62.32630304 407.46317882 -52.60828995 405.17237509 -43 396 C-34.65424247 387.25761241 -31.37037418 377.94148283 -31.52709961 365.92163086 C-32.03352559 354.41656578 -36.91740048 345.53730991 -45.25 337.8125 C-49.45151368 334.41789954 -54.01368944 332.03877674 -59 330 C-59.65871094 329.70867187 -60.31742187 329.41734375 -60.99609375 329.1171875 C-66.75082098 327.41828674 -69.76881779 330.89174357 -73.87890625 334.61083984 Z " fill="#010100" transform="translate(439,0)"/>
<path d="M0 0 C1.50006088 -0.00642769 1.50006088 -0.00642769 3.03042603 -0.01298523 C5.13632456 -0.0186898 7.24224279 -0.01925764 9.34814453 -0.01489258 C12.49678117 -0.0117608 15.64444968 -0.03514366 18.79296875 -0.06054688 C35.50085864 -0.11382903 52.4757788 0.81324422 68.4765625 6.05078125 C69.29157227 6.30827148 70.10658203 6.56576172 70.94628906 6.83105469 C90.73672574 13.26313965 107.87141604 23.1732888 123.1640625 37.30078125 C123.92928223 38.00025879 123.92928223 38.00025879 124.70996094 38.71386719 C152.09183193 64.01214622 166.66843895 98.95921054 168.27783203 135.91308594 C168.57259691 145.89801448 168.37925494 155.52121006 166.1640625 165.30078125 C165.89270809 166.61447581 165.62191509 167.92828641 165.3515625 169.2421875 C159.03578721 198.9031667 144.11713969 227.1383195 120.1640625 246.30078125 C120.1640625 212.64078125 120.1640625 178.98078125 120.1640625 144.30078125 C104.3240625 144.30078125 88.4840625 144.30078125 72.1640625 144.30078125 C72.1640625 197.10078125 72.1640625 249.90078125 72.1640625 304.30078125 C61.6040625 304.30078125 51.0440625 304.30078125 40.1640625 304.30078125 C40.1640625 277.90078125 40.1640625 251.50078125 40.1640625 224.30078125 C24.3240625 224.30078125 8.4840625 224.30078125 -7.8359375 224.30078125 C-7.8359375 250.70078125 -7.8359375 277.10078125 -7.8359375 304.30078125 C-18.3959375 304.30078125 -28.9559375 304.30078125 -39.8359375 304.30078125 C-39.8359375 272.62078125 -39.8359375 240.94078125 -39.8359375 208.30078125 C-55.6759375 208.30078125 -71.5159375 208.30078125 -87.8359375 208.30078125 C-87.8359375 220.84078125 -87.8359375 233.38078125 -87.8359375 246.30078125 C-109.78042382 227.49122154 -124.53529805 203.24438433 -131.8359375 175.30078125 C-132.16207031 174.06070313 -132.48820312 172.820625 -132.82421875 171.54296875 C-137.6026879 152.02145022 -138.19041088 129.71074724 -132.8359375 110.30078125 C-132.5575 109.10324219 -132.2790625 107.90570313 -131.9921875 106.671875 C-125.97854829 81.81377154 -113.34476889 60.85399908 -95.8359375 42.30078125 C-95.16304687 41.5634375 -94.49015625 40.82609375 -93.796875 40.06640625 C-70.481402 15.44107522 -33.81422685 -0.03323509 0 0 Z " fill="#FEE9A6" transform="translate(239.8359375,71.69921875)"/>
<path d="M0 0 C0.66 0 1.32 0 2 0 C3.10644531 1.48681641 3.10644531 1.48681641 4.328125 3.6015625 C5.02192261 4.78443848 5.02192261 4.78443848 5.72973633 5.99121094 C6.23142334 6.86036133 6.73311035 7.72951172 7.25 8.625 C11.6399146 16.08872331 16.13828023 23.46085982 20.8125 30.75 C27.66508351 41.45508297 34.42063607 52.2182042 41.13769531 63.00878906 C42.39907267 65.0347979 43.66147349 67.06016985 44.92480469 69.08496094 C46.76475293 72.03433122 48.60161456 74.98559949 50.4375 77.9375 C50.99961182 78.83799072 51.56172363 79.73848145 52.14086914 80.66625977 C52.64996826 81.48666748 53.15906738 82.3070752 53.68359375 83.15234375 C54.13275146 83.87413818 54.58190918 84.59593262 55.04467773 85.33959961 C56 87 56 87 56 88 C48.41 88 40.82 88 33 88 C33 132.88 33 177.76 33 224 C11.88 224 -9.24 224 -31 224 C-31 179.12 -31 134.24 -31 88 C-38.59 88 -46.18 88 -54 88 C-49.07872565 78.5675575 -43.43932626 69.68461923 -37.72558594 60.71875 C-34.68771505 55.9324271 -31.68864385 51.12190526 -28.6875 46.3125 C-27.42189542 44.2851435 -26.1562702 42.25779989 -24.890625 40.23046875 C-24.25447266 39.21130371 -23.61832031 38.19213867 -22.96289062 37.14208984 C-20.95165981 33.92261962 -18.93719636 30.70519226 -16.921875 27.48828125 C-16.25454346 26.42246826 -15.58721191 25.35665527 -14.8996582 24.25854492 C-13.63326809 22.23613394 -12.36622575 20.21413115 -11.09838867 18.19262695 C-10.51806885 17.26538818 -9.93774902 16.33814941 -9.33984375 15.3828125 C-8.50428955 14.04911621 -8.50428955 14.04911621 -7.65185547 12.68847656 C-5.44766166 9.101042 -3.34642663 5.45565028 -1.26391602 1.79638672 C-0.63827759 0.90717529 -0.63827759 0.90717529 0 0 Z " fill="#000000" transform="translate(71,288)"/>
<path d="M0 0 C9.34397995 6.00153879 15.62840703 14.50912848 18.0625 25.3125 C19.97512629 36.75348272 18.31897781 47.23279783 12.0625 57.25 C5.04933222 66.77534728 -4.40640255 72.54563704 -16.1875 74.375 C-24.69839018 75.17468096 -30.9672266 74.20713146 -38.62890625 70.37109375 C-41.59996966 69.21442021 -42.27538437 69.23319452 -45.1875 70.375 C-48.50148141 73.08665407 -51.49032189 76.12039941 -54.51635742 79.14794922 C-55.99714782 80.62216049 -57.50026308 82.07071744 -59.00585938 83.51953125 C-59.93849609 84.44636719 -60.87113281 85.37320313 -61.83203125 86.328125 C-62.69159424 87.17536133 -63.55115723 88.02259766 -64.43676758 88.89550781 C-66.47682174 91.23524556 -66.47682174 91.23524556 -66.02050781 94.05175781 C-65.17694034 96.40445068 -64.20221457 98.62018527 -63.125 100.875 C-58.86719887 111.40253028 -60.91713619 122.16326046 -65.1875 132.375 C-70.91588264 143.52670349 -79.45454726 149.45862129 -91.1875 153.375 C-101.97690352 156.02145747 -111.48752139 154.6633671 -121.1875 149.375 C-131.24576353 143.20095628 -136.38002099 135.47733925 -140.1875 124.375 C-140.1875 123.715 -140.1875 123.055 -140.1875 122.375 C-146.4575 122.375 -152.7275 122.375 -159.1875 122.375 C-159.8475 124.355 -160.5075 126.335 -161.1875 128.375 C-166.05019972 134.25361585 -172.11258398 137.72644843 -179.6328125 138.6875 C-185.66556584 138.98268059 -190.31945199 138.02603601 -195.1875 134.375 C-201.82194904 128.17578964 -205.13553454 123.14208396 -205.5625 114 C-205.38962074 107.27590668 -203.73265033 103.04835753 -199.09375 98.17578125 C-192.99179417 92.51113225 -188.2859435 89.84501937 -179.875 90.0703125 C-171.85623674 90.97941647 -166.56347345 94.23265081 -161.46484375 100.375 C-160.1875 102.375 -160.1875 102.375 -159.1875 106.375 C-152.9175 106.375 -146.6475 106.375 -140.1875 106.375 C-139.5275 103.735 -138.8675 101.095 -138.1875 98.375 C-133.65273671 88.14576347 -125.60192559 80.44407925 -115.1875 76.375 C-105.2939743 72.59821841 -95.5384189 73.63726578 -85.80859375 77.40234375 C-82.09070366 78.8075098 -82.09070366 78.8075098 -78.1875 79.375 C-75.43534507 77.55306412 -75.43534507 77.55306412 -72.8515625 74.8359375 C-72.36795258 74.35806793 -71.88434265 73.88019836 -71.38607788 73.3878479 C-70.3686455 72.37449457 -69.35873576 71.35353983 -68.35595703 70.32568359 C-66.81741485 68.75501747 -65.24950225 67.21891931 -63.67578125 65.68359375 C-62.6907788 64.69462638 -61.70763927 63.70379935 -60.7265625 62.7109375 C-59.83146973 61.80907715 -58.93637695 60.9072168 -58.01416016 59.97802734 C-55.90065845 57.53927113 -55.90065845 57.53927113 -56.34301758 54.70532227 C-57.28542079 52.10479071 -58.25175744 49.51718776 -59.25 46.9375 C-62.73156823 36.5055952 -62.3841203 27.01645637 -57.671875 17.0625 C-45.78699834 -4.45538195 -21.96728285 -12.0552162 0 0 Z " fill="#030201" transform="translate(357.1875,125.625)"/>
<path d="M0 0 C1.78194958 1.61838729 3.51085798 3.29586796 5.203125 5.0078125 C5.6857782 5.49329559 6.1684314 5.97877869 6.66571045 6.47897339 C8.19858562 8.02299866 9.72434004 9.57384824 11.25 11.125 C12.29120361 12.17624009 13.33286541 13.22702657 14.375 14.27734375 C16.92199464 16.84633004 19.46265177 19.42148161 22 22 C21.78851318 22.71937744 21.57702637 23.43875488 21.35913086 24.17993164 C17.62595693 37.27507739 17.98488995 48.22891932 24.28515625 60.50390625 C29.38299995 68.89617819 36.08876237 73.18089816 45 77 C45 88.88 45 100.76 45 113 C40.05 115.475 40.05 115.475 35 118 C28.79787499 122.67406522 25.2384788 126.98329594 22 134 C21.6803125 134.61359375 21.360625 135.2271875 21.03125 135.859375 C17.48485093 143.54323966 17.74213635 153.26177416 20.5625 161.125 C20.85253906 161.78757812 21.14257812 162.45015625 21.44140625 163.1328125 C22.18093682 165.60480977 21.90537904 166.56619399 21 169 C18.15669214 172.65197696 14.97058758 175.96842811 11.75708008 179.29321289 C10.7137035 180.38625088 9.68668037 181.49514448 8.67700195 182.61938477 C5.38416278 186.28317235 2.25387269 189.46909636 -2 192 C-6.46558533 192.0525845 -9.90929632 190.66630704 -14 189 C-25.49504255 187.5866751 -34.76722641 190.25680704 -44.3125 196.6875 C-50.31199231 201.52216395 -54.17305267 207.93263168 -57 215 C-68.88 215 -80.76 215 -93 215 C-94.65 211.7 -96.3 208.4 -98 205 C-103.26673974 197.69105505 -108.84717908 194.61069925 -117 191 C-118.3372883 190.34130262 -119.67241867 189.6780487 -121 189 C-119.84941444 183.60204011 -118.57578241 178.29012667 -117 173 C-115.845 173.391875 -114.69 173.78375 -113.5 174.1875 C-108.92973976 175.70849425 -104.34353402 177.17614903 -99.75 178.625 C-99.06486328 178.84309326 -98.37972656 179.06118652 -97.67382812 179.28588867 C-76.10179367 186.05477217 -52.98649196 181.6355459 -33 172 C-11.15111166 159.78716929 2.44690487 140.85824299 9.44042969 117.04980469 C15.33619359 95.98214246 12.35357474 72.38895455 2.02294922 53.18359375 C-6.01407419 39.02803754 -16.27925176 28.64160236 -30 20 C-30.85851562 19.45085937 -31.71703125 18.90171875 -32.6015625 18.3359375 C-34.38929999 17.20517775 -36.19240371 16.098735 -38 15 C-36.92385501 11.41285005 -35.61483178 8.11210805 -33.921875 4.78125 C-33.38191895 3.71487305 -33.38191895 3.71487305 -32.83105469 2.62695312 C-32.41968262 1.82161133 -32.41968262 1.82161133 -32 1 C-30.81664062 1.03480469 -29.63328125 1.06960938 -28.4140625 1.10546875 C-16.94373693 1.41859608 -16.94373693 1.41859608 -5.9453125 -1.5390625 C-3.2220319 -2.18433782 -2.38576931 -1.45271307 0 0 Z " fill="#FCC528" transform="translate(443,273)"/>
<path d="M0 0 C10.56 0 21.12 0 32 0 C33.32 4.29 34.64 8.58 36 13 C39.5943259 17.63478866 44.40850934 21.13616978 50 23 C57.37361568 23.85882379 62.50304424 22.83588324 68.90625 19.09375 C71 18 71 18 74 18 C76.17651367 19.8359375 76.17651367 19.8359375 78.66796875 22.375 C79.56064453 23.27734375 80.45332031 24.1796875 81.37304688 25.109375 C82.31136157 26.0727573 83.2495105 27.03630108 84.1875 28 C85.13667769 28.96422346 86.08653956 29.92777392 87.03710938 30.890625 C89.36490319 33.25386746 91.68543133 35.62381482 94 38 C91.16381385 40.83618615 87.6708599 41.86658189 84 43.3125 C78.13160365 45.65615803 72.48943842 48.12987558 66.98046875 51.25 C64.45349168 52.20696173 63.47955327 52.05033301 61 51 C59.45530886 49.82748988 57.95946543 48.58953225 56.5 47.3125 C51.04655 42.84913463 45.47349614 39.7522537 39 37 C38.02675781 36.58492187 37.05351562 36.16984375 36.05078125 35.7421875 C22.15146934 30.65229863 5.59327067 31.29596798 -8 37 C-25.19863292 44.97937666 -37.13687467 57.27654448 -44 75 C-44.48146484 76.22396484 -44.48146484 76.22396484 -44.97265625 77.47265625 C-50.23590985 93.31137754 -47.36694698 110.62780409 -40.390625 125.41015625 C-33.75046995 137.45685956 -24.34390155 146.82804922 -12 153 C-12.30822621 155.2922454 -12.62170874 157.58378455 -12.9375 159.875 C-13.19853516 161.78925781 -13.19853516 161.78925781 -13.46484375 163.7421875 C-14 167 -14 167 -15 169 C-15.89460938 168.94199219 -16.78921875 168.88398438 -17.7109375 168.82421875 C-25.26516881 168.54234445 -30.49043971 168.96060218 -37.01171875 172.90625 C-39 174 -39 174 -42 174 C-44.26831055 172.07226562 -44.26831055 172.07226562 -46.88671875 169.40625 C-47.34859085 168.94013306 -47.81046295 168.47401611 -48.28633118 167.99377441 C-49.76056952 166.5027371 -51.22404088 165.00161128 -52.6875 163.5 C-53.68485528 162.48759946 -54.68289417 161.47587189 -55.68164062 160.46484375 C-58.12907564 157.98432371 -60.56695887 155.49464911 -63 153 C-62.57412598 152.20045898 -62.14825195 151.40091797 -61.70947266 150.57714844 C-61.1582373 149.5152832 -60.60700195 148.45341797 -60.0390625 147.359375 C-59.48943848 146.31233398 -58.93981445 145.26529297 -58.37353516 144.18652344 C-55.98996287 138.65677131 -55.89476261 133.42682069 -57.73828125 127.7109375 C-60.96513839 120.61981935 -65.6702523 116.82475077 -72.71875 113.796875 C-75.40737989 112.79872906 -75.40737989 112.79872906 -80 112 C-80 101.44 -80 90.88 -80 80 C-75.71 78.68 -71.42 77.36 -67 76 C-63.86849276 73.70823168 -63.86849276 73.70823168 -62 71 C-61.1646875 70.0409375 -61.1646875 70.0409375 -60.3125 69.0625 C-56.77641867 63.50580077 -56.02988628 57.43289 -57 51 C-58.12283635 48.23398849 -59.41347532 45.71223577 -60.90625 43.12890625 C-62 41 -62 41 -62 38 C-60.07226563 35.73168945 -60.07226563 35.73168945 -57.40625 33.11328125 C-56.94013306 32.65140915 -56.47401611 32.18953705 -55.99377441 31.71366882 C-54.5027371 30.23943048 -53.00161128 28.77595912 -51.5 27.3125 C-50.48759946 26.31514472 -49.47587189 25.31710583 -48.46484375 24.31835938 C-45.98432371 21.87092436 -43.49464911 19.43304113 -41 17 C-40.19393311 17.42587402 -39.38786621 17.85174805 -38.55737305 18.29052734 C-37.49043213 18.8417627 -36.42349121 19.39299805 -35.32421875 19.9609375 C-34.27065186 20.51056152 -33.21708496 21.06018555 -32.1315918 21.62646484 C-26.72649358 23.99717371 -22.14846292 23.95057427 -16.5546875 22.26171875 C-8.89083237 19.18858872 -5.01533282 14.77339772 -1.796875 7.28125 C-0.79872906 4.59262011 -0.79872906 4.59262011 0 0 Z " fill="#FDC528" transform="translate(104,24)"/>
<path d="M0 0 C36.96 0 73.92 0 112 0 C112 16.43129879 110.62528997 28.67840022 101 42 C100.34257812 42.93005859 100.34257812 42.93005859 99.671875 43.87890625 C91.06236541 54.93767287 77.55023848 61.4215696 64 64 C48.12109302 65.73726479 33.84880398 61.73803581 20.8203125 52.4453125 C9.77790647 43.46530137 2.26691555 30.01365978 0 16 C0 10.72 0 5.44 0 0 Z " fill="#A9B1BC" transform="translate(200,424)"/>
<path d="M0 0 C3.51620408 1.17206803 3.74890283 1.77861945 5.53125 4.875 C6.24522949 6.09437256 6.24522949 6.09437256 6.97363281 7.33837891 C7.47733398 8.21671387 7.98103516 9.09504883 8.5 10 C13.02722917 17.74438616 17.71645273 25.33183203 22.69726562 32.79296875 C26 37.79355324 26 37.79355324 26 40 C23.03 40 20.06 40 17 40 C17 84.88 17 129.76 17 176 C6.44 176 -4.12 176 -15 176 C-15 131.12 -15 86.24 -15 40 C-17.97 40 -20.94 40 -24 40 C-22.61907647 36.25304628 -20.8979608 33.02365963 -18.76953125 29.6484375 C-18.13080078 28.63136719 -17.49207031 27.61429687 -16.83398438 26.56640625 C-16.16689453 25.51324219 -15.49980469 24.46007812 -14.8125 23.375 C-14.16474609 22.34503906 -13.51699219 21.31507813 -12.84960938 20.25390625 C-8.58988562 13.48771167 -4.29788142 6.74200401 0 0 Z " fill="#B3DC7E" transform="translate(71,320)"/>
<path d="M0 0 C3.51620408 1.17206803 3.74890283 1.77861945 5.53125 4.875 C6.24522949 6.09437256 6.24522949 6.09437256 6.97363281 7.33837891 C7.47733398 8.21671387 7.98103516 9.09504883 8.5 10 C13.02722917 17.74438616 17.71645273 25.33183203 22.69726562 32.79296875 C26 37.79355324 26 37.79355324 26 40 C23.03 40 20.06 40 17 40 C17 84.88 17 129.76 17 176 C6.44 176 -4.12 176 -15 176 C-15 131.12 -15 86.24 -15 40 C-17.97 40 -20.94 40 -24 40 C-22.61907647 36.25304628 -20.8979608 33.02365963 -18.76953125 29.6484375 C-18.13080078 28.63136719 -17.49207031 27.61429688 -16.83398438 26.56640625 C-16.16689453 25.51324219 -15.49980469 24.46007812 -14.8125 23.375 C-14.16474609 22.34503906 -13.51699219 21.31507812 -12.84960938 20.25390625 C-8.58988562 13.48771167 -4.29788142 6.74200401 0 0 Z " fill="#B3DC7E" transform="translate(439,32)"/>
<path d="M0 0 C10.16236865 1.5828114 17.90568359 9.03403471 25 16 C25.70125 16.67675781 26.4025 17.35351562 27.125 18.05078125 C37.6242365 28.93963786 44.26368087 43.90545782 45 59 C45.06445312 60.25941406 45.12890625 61.51882813 45.1953125 62.81640625 C45.85611106 81.88705271 39.81070712 99.68215086 27 114 C26.34515625 114.74765625 25.6903125 115.4953125 25.015625 116.265625 C12.89805199 129.26769239 -4.84010583 137.42142368 -22.6328125 138.1484375 C-26.42928927 138.18617584 -30.20567232 138.12591795 -34 138 C-34.8146875 137.98195313 -35.629375 137.96390625 -36.46875 137.9453125 C-46.37770706 137.31675925 -59.79000861 133.00489316 -67 126 C-67.75622887 123.6245014 -67.87472054 121.66599909 -67.87890625 119.1796875 C-68.11674309 114.89862439 -70.85541757 112.10511407 -73.8125 109.25 C-76.64973144 107.51336695 -76.64973144 107.51336695 -83 106 C-83 100.72 -83 95.44 -83 90 C-80.525 89.505 -80.525 89.505 -78 89 C-77.46890625 89.80824219 -76.9378125 90.61648438 -76.390625 91.44921875 C-75.68421875 92.51785156 -74.9778125 93.58648437 -74.25 94.6875 C-73.55390625 95.74324219 -72.8578125 96.79898438 -72.140625 97.88671875 C-63.58709025 110.32680487 -50.84132986 118.15063105 -36 121 C-20.30585641 122.47911076 -5.97061428 119.29312211 7 110 C7.85464844 109.40058594 7.85464844 109.40058594 8.7265625 108.7890625 C19.09135772 100.8692959 26.04557586 86.68747004 28 74 C29.27211423 56.70278014 25.50280774 41.73465864 14.25 28.125 C7.78062237 21.29203332 -0.57455373 16.97426711 -9 13 C-8.06398754 11.58235006 -7.1261208 10.16592432 -6.1875 8.75 C-5.66542969 7.96109375 -5.14335937 7.1721875 -4.60546875 6.359375 C-3.12865878 4.18907519 -1.59310127 2.08586232 0 0 Z " fill="#F8D36E" transform="translate(395,302)"/>
<path d="M0 0 C0.99 1.485 0.99 1.485 2 3 C0.2633385 4.53604715 -1.48982755 6.05345163 -3.25 7.5625 C-4.22453125 8.40941406 -5.1990625 9.25632812 -6.203125 10.12890625 C-9 12 -9 12 -11.01953125 11.9375 C-11.67308594 11.628125 -12.32664062 11.31875 -13 11 C-13.84433594 10.60683594 -14.68867188 10.21367188 -15.55859375 9.80859375 C-16.50863281 9.35613281 -17.45867187 8.90367188 -18.4375 8.4375 C-26.45781034 5.072882 -34.62192227 4.28966165 -42.8125 7.625 C-51.79468249 12.33858567 -56.96154119 17.63370536 -61.3125 26.75 C-63.62346485 37.67456113 -61.47478423 46.83506024 -56.0625 56.4375 C-53.93670364 59.07864094 -51.74294859 61.01898157 -49 63 C-49.62678171 66.66172475 -50.64451846 69.8818995 -52.0625 73.3125 C-52.42472656 74.19550781 -52.78695312 75.07851562 -53.16015625 75.98828125 C-53.43730469 76.65214844 -53.71445313 77.31601563 -54 78 C-60.85262784 76.81221118 -66.34898459 70.19953099 -70.62109375 65.0078125 C-78.33545717 53.77500004 -80.68067353 40.45124717 -78.53515625 27.109375 C-75.36461246 13.97694511 -68.11704528 3.31942288 -56.78125 -4.109375 C-38.07355031 -14.68709305 -17.15292203 -13.46613733 0 0 Z " fill="#F8D36E" transform="translate(151,83)"/>
<path d="M0 0 C5.66416739 2.96895019 9.86022993 8.07053957 12.4375 13.875 C14.36786332 20.34739468 13.81600405 26.29927398 11.0390625 32.4140625 C7.35692985 38.93019612 2.43630076 43.31391494 -4.73046875 45.62890625 C-11.16295758 47.03130472 -17.15348675 46.87433925 -22.9453125 43.56640625 C-28.4059855 39.4709015 -33.79216198 34.0157845 -34.8984375 27.1015625 C-35.58355116 19.94101969 -35.38139459 13.95563678 -30.8984375 8.1015625 C-21.88974004 -1.36093128 -12.629034 -4.77493512 0 0 Z " fill="#FB806C" transform="translate(346.8984375,137.8984375)"/>
<path d="M0 0 C6.50099074 3.68128391 11.87819747 8.78320492 13.9453125 16.1015625 C15.20908545 24.11749375 13.55801943 30.4620601 8.9453125 37.1015625 C4.23417819 42.52165392 -1.40366726 45.500713 -8.50390625 46.41796875 C-14.535995 46.70433131 -19.18658897 45.7526364 -24.0546875 42.1015625 C-30.68913654 35.90235214 -34.00272204 30.86864646 -34.4296875 21.7265625 C-34.25680824 15.00246918 -32.59983783 10.77492003 -27.9609375 5.90234375 C-19.7156089 -1.75206963 -10.78488932 -4.67199659 0 0 Z " fill="#FB806C" transform="translate(266.0546875,217.8984375)"/>
<path d="M0 0 C5.28 0 10.56 0 16 0 C16.20856709 12.6736695 16.36846353 25.34693059 16.46630955 38.02196693 C16.51327267 43.90767673 16.57696443 49.79221222 16.67895508 55.67724609 C16.7767759 61.35724791 16.83056423 67.03612073 16.85389519 72.71689987 C16.87051996 74.88358717 16.90298633 77.0502129 16.95157051 79.21641922 C17.0169691 82.25321943 17.02590093 85.28536235 17.02172852 88.32275391 C17.054086 89.21755463 17.08644348 90.11235535 17.11978149 91.03427124 C17.06350225 94.82277801 16.92331499 97.0773668 14.17378044 99.82487106 C9.66520055 102.9463 5.08906428 104.81897245 0 107 C0 71.69 0 36.38 0 0 Z " fill="#E5E8EC" transform="translate(328,232)"/>
<path d="M0 0 C26.4 0 52.8 0 80 0 C80 5.28 80 10.56 80 16 C53.6 16 27.2 16 0 16 C0 10.72 0 5.44 0 0 Z " fill="#CCD1D9" transform="translate(216,392)"/>
<path d="M0 0 C5.28 0 10.56 0 16 0 C16 21.12 16 42.24 16 64 C10.72 64 5.44 64 0 64 C0 42.88 0 21.76 0 0 Z " fill="#E6E9ED" transform="translate(248,312)"/>
<path d="M0 0 C5.28 0 10.56 0 16 0 C16 14.19 16 28.38 16 43 C2 36 2 36 0 34 C-0.17502995 31.41896694 -0.23162279 28.94691837 -0.1953125 26.3671875 C-0.1924826 25.61535187 -0.18965271 24.86351624 -0.18673706 24.08889771 C-0.17552874 21.68410422 -0.15042352 19.27968119 -0.125 16.875 C-0.11497102 15.24609912 -0.10584503 13.61719242 -0.09765625 11.98828125 C-0.07728748 7.99192945 -0.03814149 3.9963801 0 0 Z " fill="#E5E8EC" transform="translate(168,296)"/>
<path d="M0 0 C4.0743356 0.84881992 5.54405875 2.30225596 8 5.625 C8.625 8.625 8.625 8.625 8 11.625 C5.54405875 14.94774404 4.0743356 16.40118008 0 17.25 C-4.0743356 16.40118008 -5.54405875 14.94774404 -8 11.625 C-8.625 8.625 -8.625 8.625 -8 5.625 C-5.54405875 2.30225596 -4.0743356 0.84881992 0 0 Z " fill="#0B0605" transform="translate(256,231.375)"/>
<path d="M0 0 C4.0743356 0.84881992 5.54405875 2.30225596 8 5.625 C8.625 8.625 8.625 8.625 8 11.625 C5.54405875 14.94774404 4.0743356 16.40118008 0 17.25 C-4.0743356 16.40118008 -5.54405875 14.94774404 -8 11.625 C-8.625 8.625 -8.625 8.625 -8 5.625 C-5.54405875 2.30225596 -4.0743356 0.84881992 0 0 Z " fill="#F27B68" transform="translate(176,231.375)"/>
<path d="M0 0 C4.0743356 0.84881992 5.54405875 2.30225596 8 5.625 C8.625 8.625 8.625 8.625 8 11.625 C5.54405875 14.94774404 4.0743356 16.40118008 0 17.25 C-4.0743356 16.40118008 -5.54405875 14.94774404 -8 11.625 C-8.625 8.625 -8.625 8.625 -8 5.625 C-5.54405875 2.30225596 -4.0743356 0.84881992 0 0 Z " fill="#0B0605" transform="translate(336,151.375)"/>
</svg>
