<?xml version="1.0" encoding="UTF-8"?>
<svg version="1.1" xmlns="http://www.w3.org/2000/svg" width="678" height="677">
<path d="M0 0 C4.38578387 1.09644597 7.85662369 2.98356479 11.75 5.1875 C12.53439453 5.62747314 13.31878906 6.06744629 14.12695312 6.52075195 C22.68331422 11.343262 31.15438769 16.31298081 39.62890625 21.27734375 C46.21422511 25.13213964 52.82443398 28.94306177 59.4375 32.75 C66.99221292 37.10281201 74.54205648 41.46318012 82.0625 45.875 C82.7649585 46.28588867 83.46741699 46.69677734 84.19116211 47.12011719 C88.87936946 49.87936946 88.87936946 49.87936946 90 51 C90.09527037 52.34072817 90.1218877 53.68642503 90.12025452 55.03053284 C90.12231651 56.33258163 90.12231651 56.33258163 90.12442017 57.66093445 C90.11902725 59.10023064 90.11902725 59.10023064 90.11352539 60.56860352 C90.11367142 61.57336731 90.11381744 62.5781311 90.1139679 63.61334229 C90.1132683 66.95188517 90.10547374 70.29037305 90.09765625 73.62890625 C90.09579224 75.93676218 90.09436826 78.24461851 90.09336853 80.55247498 C90.08954204 86.64017826 90.07971065 92.72785786 90.06866455 98.81555176 C90.05845323 105.02221354 90.05387151 111.22887913 90.04882812 117.43554688 C90.0380885 129.62370835 90.02101052 141.81185221 90 154 C87.75293172 152.88345076 85.50663043 151.76540273 83.26074219 150.64648438 C82.31157425 150.17514069 82.31157425 150.17514069 81.3432312 149.6942749 C76.86534344 147.4613492 72.5240199 145.09665994 68.25 142.5 C66.80669256 141.63814459 65.36262956 140.77755369 63.91796875 139.91796875 C63.1398584 139.45438965 62.36174805 138.99081055 61.56005859 138.51318359 C56.58450953 135.57226684 51.57130065 132.69628732 46.5625 129.8125 C45.46993896 129.18303467 44.37737793 128.55356934 43.25170898 127.9050293 C40.99409762 126.60444705 38.7363647 125.30407578 36.47851562 124.00390625 C32.91680423 121.95253764 29.35667597 119.89843161 25.796875 117.84375 C25.20845322 117.50413742 24.62003143 117.16452484 24.01377869 116.81462097 C21.18890916 115.18419138 18.36409557 113.55366492 15.53930664 111.9230957 C14.52215576 111.33616943 13.50500488 110.74924316 12.45703125 110.14453125 C11.56991455 109.63253174 10.68279785 109.12053223 9.76879883 108.59301758 C6.51647652 106.72180666 3.25782491 104.86161423 0 103 C0 69.01 0 35.02 0 0 Z " fill="#5C4EE5" transform="translate(196,102)"/>
<path d="M0 0 C4.88121094 0.97624219 8.05167725 2.58474331 12.1875 5.125 C13.71274102 6.04169805 15.23883949 6.9569704 16.765625 7.87109375 C17.60029297 8.37237793 18.43496094 8.87366211 19.29492188 9.39013672 C24.31161193 12.37570118 29.37719657 15.27669262 34.4375 18.1875 C36.6718793 19.47525296 38.90625424 20.76301348 41.140625 22.05078125 C45.73337643 24.69574916 50.32741961 27.33846211 54.921875 29.98046875 C56.62259155 30.95947144 56.62259155 30.95947144 58.35766602 31.95825195 C60.49027991 33.18584574 62.62352283 34.41234782 64.75756836 35.63745117 C66.7129336 36.76331567 68.65517479 37.91239301 70.58122253 39.08770752 C73.0692164 40.47936638 75.21591778 41.50548666 77.83895874 42.50050354 C82.17524586 44.31446087 86.02209264 46.27049794 89 50 C91.72808301 57.33608563 90.73959528 65.73433985 90.46484375 73.41015625 C90.43684198 75.70650792 90.41550175 78.00294964 90.40052795 80.29942322 C90.3434408 86.32378628 90.19629164 92.34266307 90.02996826 98.36486816 C89.87609724 104.51788094 89.80792624 110.67178687 89.73242188 116.82617188 C89.57188519 128.88651621 89.31613141 140.94280077 89 153 C85.46935789 151.61572638 82.19644021 150.09020174 78.88671875 148.234375 C77.89873291 147.68144775 76.91074707 147.12852051 75.89282227 146.55883789 C74.83506592 145.96192139 73.77730957 145.36500488 72.6875 144.75 C71.57882568 144.12665771 70.47015137 143.50331543 69.32788086 142.86108398 C59.88296585 137.53388686 50.51132952 132.08469991 41.15625 126.6015625 C34.47403022 122.68626706 27.77045907 118.80844541 21.0625 114.9375 C19.9907251 114.31818604 18.9189502 113.69887207 17.81469727 113.06079102 C16.79432373 112.47225342 15.7739502 111.88371582 14.72265625 111.27734375 C13.83328369 110.76421631 12.94391113 110.25108887 12.02758789 109.72241211 C8.03549096 107.45128528 4.01492881 105.23051601 0 103 C0 69.01 0 35.02 0 0 Z " fill="#5C4EE5" transform="translate(294,272)"/>
<path d="M0 0 C4.88121094 0.97624219 8.05167725 2.58474331 12.1875 5.125 C13.71274102 6.04169805 15.23883949 6.9569704 16.765625 7.87109375 C17.60029297 8.37237793 18.43496094 8.87366211 19.29492188 9.39013672 C24.31161193 12.37570118 29.37719657 15.27669262 34.4375 18.1875 C36.6718793 19.47525296 38.90625424 20.76301348 41.140625 22.05078125 C45.73337643 24.69574916 50.32741961 27.33846211 54.921875 29.98046875 C56.62259155 30.95947144 56.62259155 30.95947144 58.35766602 31.95825195 C60.49027991 33.18584574 62.62352283 34.41234782 64.75756836 35.63745117 C66.7129336 36.76331567 68.65517479 37.91239301 70.58122253 39.08770752 C73.0692164 40.47936638 75.21591778 41.50548666 77.83895874 42.50050354 C82.17524586 44.31446087 86.02209264 46.27049794 89 50 C91.72808301 57.33608563 90.73959528 65.73433985 90.46484375 73.41015625 C90.43684198 75.70650792 90.41550175 78.00294964 90.40052795 80.29942322 C90.3434408 86.32378628 90.19629164 92.34266307 90.02996826 98.36486816 C89.87609724 104.51788094 89.80792624 110.67178687 89.73242188 116.82617188 C89.57188519 128.88651621 89.31613141 140.94280077 89 153 C84.17008895 151.46855447 80.06203586 149.43989217 75.75 146.8125 C74.23381085 145.90501595 72.71683112 144.99885194 71.19921875 144.09375 C69.95664307 143.35125 69.95664307 143.35125 68.68896484 142.59375 C63.67332176 139.62097734 58.61583278 136.72057844 53.5625 133.8125 C51.32942096 132.52605229 49.09634814 131.2395938 46.86328125 129.953125 C45.73615723 129.30408203 44.6090332 128.65503906 43.44775391 127.98632812 C39.97840332 125.98755767 36.5103893 123.9864907 33.04296875 121.984375 C31.904646 121.32719482 30.76632324 120.67001465 29.59350586 119.99291992 C27.44709255 118.75365815 25.30076359 117.51425028 23.15454102 116.2746582 C15.44889427 111.82729222 7.72494822 107.41425612 0 103 C0 69.01 0 35.02 0 0 Z " fill="#5C4EE5" transform="translate(294,159)"/>
<path d="M0 0 C0 33.99 0 67.98 0 103 C-19.5 114.25 -19.5 114.25 -39 125.5 C-42.18269531 127.33691406 -42.18269531 127.33691406 -45.4296875 129.2109375 C-49.39671984 131.49983986 -53.36531202 133.78598811 -57.33599854 136.06854248 C-59.11749578 137.09275665 -60.89864322 138.11757651 -62.6796875 139.14257812 C-64.91076625 140.42633375 -67.14249573 141.70895939 -69.375 142.99023438 C-74.46473724 145.92039481 -79.49291501 148.88001689 -84.37451172 152.14794922 C-86 153 -86 153 -89 153 C-89 119.01 -89 85.02 -89 50 C-79.76 44.72 -70.52 39.44 -61 34 C-53.4316964 29.63921554 -45.86418059 25.27731849 -38.30126953 20.90722656 C-32.47297454 17.54007374 -26.6426826 14.17638302 -20.8125 10.8125 C-19.19093994 9.87651978 -19.19093994 9.87651978 -17.53662109 8.92163086 C-15.55466317 7.77792769 -13.57197347 6.63549121 -11.58837891 5.49462891 C-9.98204251 4.56706888 -8.37939541 3.63304926 -6.78271484 2.68896484 C-2.20923675 0 -2.20923675 0 0 0 Z " fill="#4040B2" transform="translate(481,159)"/>
<path d="M0 0 C0.495 1.485 0.495 1.485 1 3 C2.09699219 2.65066406 3.19398438 2.30132813 4.32421875 1.94140625 C5.77860238 1.48163336 7.23303189 1.02200559 8.6875 0.5625 C9.40873047 0.33240234 10.12996094 0.10230469 10.87304688 -0.13476562 C18.65951283 -2.58803572 26.36650849 -4.66106299 34.3125 -1.8125 C38.2448173 0.83952795 40.49898186 3.49694559 42 8 C42.08813433 9.79470387 42.1176372 11.59254239 42.11352539 13.3894043 C42.11341209 15.04077644 42.11341209 15.04077644 42.11329651 16.72550964 C42.10813522 17.91308365 42.10297394 19.10065765 42.09765625 20.32421875 C42.0962413 21.54075638 42.09482635 22.75729401 42.09336853 24.01069641 C42.08776312 27.9029891 42.07520967 31.79522464 42.0625 35.6875 C42.0574857 38.32356688 42.05292267 40.95963466 42.04882812 43.59570312 C42.03779193 50.06382416 42.02052362 56.53190239 42 63 C36.39 63 30.78 63 25 63 C24.67 47.16 24.34 31.32 24 15 C17.27045783 14.74358893 17.27045783 14.74358893 11.6875 16.5 C8 18 8 18 5 18 C5 32.85 5 47.7 5 63 C-0.61 63 -6.22 63 -12 63 C-12.02505615 61.61699707 -12.0501123 60.23399414 -12.07592773 58.80908203 C-12.16990306 53.69147021 -12.27014767 48.57399727 -12.37231445 43.45654297 C-12.41570078 41.23912803 -12.45737308 39.02167888 -12.49731445 36.80419922 C-12.55492754 33.62196528 -12.61864764 30.43990416 -12.68359375 27.2578125 C-12.70030624 26.26194122 -12.71701874 25.26606995 -12.73423767 24.24002075 C-12.7641555 22.85881546 -12.7641555 22.85881546 -12.79467773 21.44970703 C-12.81799416 20.23059128 -12.81799416 20.23059128 -12.84178162 18.98684692 C-12.88102414 16.92561733 -12.88102414 16.92561733 -14 15 C-21.60830902 14.43642155 -24.13308557 15.85323423 -32 19 C-32.33 33.52 -32.66 48.04 -33 63 C-38.61 63 -44.22 63 -50 63 C-50 41.88 -50 20.76 -50 -1 C-45.38 -1 -40.76 -1 -36 -1 C-36 0.32 -36 1.64 -36 3 C-34.98679687 2.65066406 -33.97359375 2.30132813 -32.9296875 1.94140625 C-31.57820771 1.48152771 -30.22664053 1.02190591 -28.875 0.5625 C-28.20984375 0.33240234 -27.5446875 0.10230469 -26.859375 -0.13476562 C-18.12617703 -3.08864141 -8.14151181 -5.49552047 0 0 Z " fill="#000000" transform="translate(539,516)"/>
<path d="M0 0 C6.64593233 6.75655467 7.55578821 15.06319407 7.56054688 24.18554688 C7.54056641 25.44431641 7.52058594 26.70308594 7.5 28 C7.50708984 29.26263672 7.51417969 30.52527344 7.52148438 31.82617188 C7.46501694 40.14425915 6.69268671 47.05385548 2.375 54.25 C-5.73048496 61.91735064 -15.43631744 61.87108536 -25.94921875 61.7109375 C-32.55547118 61.46284994 -37.77403545 60.25391781 -42.7890625 55.7890625 C-47.83488492 50.31279077 -49.24968133 45.18785454 -49.2734375 37.79296875 C-49.2800943 37.06435135 -49.2867511 36.33573395 -49.29360962 35.58503723 C-49.30370182 34.04784658 -49.3084277 32.51061242 -49.30810547 30.97338867 C-49.31246759 28.64231688 -49.34878857 26.31315783 -49.38671875 23.98242188 C-49.45488891 15.12874028 -49.24156365 8.42520688 -43.19140625 1.4140625 C-31.68915525 -7.77711266 -12.19293985 -9.1576761 0 0 Z M-30.9375 12.4375 C-33.22129183 17.00508365 -32.21272605 23.29791124 -32.25 28.3125 C-32.27900391 29.60542969 -32.30800781 30.89835938 -32.33789062 32.23046875 C-32.34626953 33.47183594 -32.35464844 34.71320312 -32.36328125 35.9921875 C-32.37786377 37.13155762 -32.39244629 38.27092773 -32.4074707 39.44482422 C-31.83472781 43.09193198 -30.82953023 44.21627963 -27.9375 46.4375 C-23.1618207 48.0293931 -19.34363679 47.96811766 -14.625 46.1875 C-11.72621789 44.29992095 -11.13099137 43.57972298 -9.9375 40.4375 C-9.48757497 36.30310488 -9.56721514 32.15639288 -9.5625 28 C-9.53800781 26.86755859 -9.51351562 25.73511719 -9.48828125 24.56835938 C-9.40567258 18.08539615 -9.40567258 18.08539615 -11.8359375 12.21484375 C-15.64538661 8.99309776 -18.60717821 9.16892062 -23.453125 9.2109375 C-26.60645466 9.4985053 -28.51859433 10.4087404 -30.9375 12.4375 Z " fill="#000000" transform="translate(435.9375,518.5625)"/>
<path d="M0 0 C4.95600375 4.24800321 8.68068267 9.10329857 9.22705078 15.77075195 C9.21657715 16.75003662 9.20610352 17.72932129 9.1953125 18.73828125 C9.19031738 19.70032471 9.18532227 20.66236816 9.18017578 21.65356445 C9.16196777 22.86101318 9.14375977 24.06846191 9.125 25.3125 C9.08375 29.169375 9.0425 33.02625 9 37 C-2.55 37 -14.1 37 -26 37 C-25.34 40.3 -24.68 43.6 -24 47 C-20.24767734 49.50154844 -17.28050791 49.3025572 -12.9375 49.25 C-11.79873413 49.24419922 -11.79873413 49.24419922 -10.63696289 49.23828125 C-4.92616286 49.15073146 0.47742348 48.51972622 6 47 C7.34911472 51.89054085 8.11704968 55.89370776 8 61 C0.29346999 63.73142836 -7.06967173 64.35046013 -15.1875 64.4375 C-16.11320801 64.45941406 -17.03891602 64.48132813 -17.99267578 64.50390625 C-25.09416067 64.48364162 -31.46637205 63.1703364 -36.88549805 58.30834961 C-43.68375289 51.20852046 -43.34611543 42.41025178 -43.31567383 33.09399414 C-43.31251262 31.07057836 -43.33602847 29.04862653 -43.36132812 27.02539062 C-43.36621435 17.1992009 -42.50905855 9.91635038 -35.67578125 2.47265625 C-26.8937012 -5.24492924 -9.9745586 -5.20261951 0 0 Z M-24 14 C-26.62656713 17.46229303 -26 19.24986908 -26 24 C-19.73 24 -13.46 24 -7 24 C-6.28044518 16.63995407 -6.28044518 16.63995407 -8.5625 13.5625 C-14.05893783 10.03914242 -18.68060563 10.41250147 -24 14 Z " fill="#000000" transform="translate(191,516)"/>
<path d="M0 0 C3.34381565 4.61215951 4.12741104 8.52593808 4.11352539 14.13574219 C4.11344986 15.15649841 4.11337433 16.17725464 4.11329651 17.22894287 C4.10813522 18.32386047 4.10297394 19.41877808 4.09765625 20.546875 C4.0962413 21.6732135 4.09482635 22.799552 4.09336853 23.96002197 C4.08777199 27.55670835 4.0752201 31.15333244 4.0625 34.75 C4.05748455 37.18880118 4.05292172 39.62760334 4.04882812 42.06640625 C4.03780369 48.04429483 4.0205414 54.02213685 4 60 C-0.62 60 -5.24 60 -10 60 C-10.33 59.34 -10.66 58.68 -11 58 C-11.54785156 58.2165625 -12.09570312 58.433125 -12.66015625 58.65625 C-20.2875991 61.33515676 -27.9663246 61.93649702 -36 61 C-40.62352073 58.71392586 -43.87002673 56.01326206 -45.7265625 51.0625 C-47.67998854 43.76970944 -47.61348804 36.3464937 -44.3125 29.5 C-41.06925608 25.99379036 -38.21540177 24.19937183 -33.35766602 23.76220703 C-30.27473444 23.70502668 -27.20752178 23.73847392 -24.125 23.8125 C-23.05507813 23.82603516 -21.98515625 23.83957031 -20.8828125 23.85351562 C-18.25468489 23.88871376 -15.62760806 23.93795307 -13 24 C-13.08723378 22.22825181 -13.19541655 20.45752623 -13.3125 18.6875 C-13.37050781 17.70136719 -13.42851562 16.71523438 -13.48828125 15.69921875 C-14.05105103 12.73071555 -14.6148794 11.7828398 -17 10 C-25.14235731 7.67835026 -34.67598611 9.32870856 -43 10 C-43.33 5.71 -43.66 1.42 -44 -3 C-30.54861302 -7.20355843 -11.58171907 -9.65143255 0 0 Z M-30 38 C-30.38024775 42.65145592 -30.38024775 42.65145592 -29 47 C-22.58566989 48.46291739 -18.96710356 47.66388552 -13 45 C-13 42.03 -13 39.06 -13 36 C-15.27057377 35.94601013 -17.54151288 35.90721258 -19.8125 35.875 C-21.07707031 35.85179687 -22.34164063 35.82859375 -23.64453125 35.8046875 C-27.1338024 35.72418082 -27.1338024 35.72418082 -30 38 Z " fill="#000000" transform="translate(331,519)"/>
<path d="M0 0 C21.78 0 43.56 0 66 0 C66 5.28 66 10.56 66 16 C58.08 16 50.16 16 42 16 C42 39.76 42 63.52 42 88 C36.39 88 30.78 88 25 88 C25 64.24 25 40.48 25 16 C16.75 16 8.5 16 0 16 C0 10.72 0 5.44 0 0 Z " fill="#000000" transform="translate(96,491)"/>
<path d="M0 0 C1.28648437 -0.01417969 2.57296875 -0.02835937 3.8984375 -0.04296875 C7.50952711 0.18035859 10.27261667 0.87456968 13.625 2.1875 C13.48415204 3.97956547 13.33716299 5.77114917 13.1875 7.5625 C13.10628906 8.56023437 13.02507812 9.55796875 12.94140625 10.5859375 C12.625 13.1875 12.625 13.1875 11.625 15.1875 C10.70976562 15.16429687 9.79453125 15.14109375 8.8515625 15.1171875 C7.66304688 15.09914063 6.47453125 15.08109375 5.25 15.0625 C4.06664062 15.03929687 2.88328125 15.01609375 1.6640625 14.9921875 C-1.48653817 14.85883771 -1.48653817 14.85883771 -3.375 17.1875 C-3.83896693 20.07973503 -3.83896693 20.07973503 -4 23.3125 C-4.12375 25.25125 -4.2475 27.19 -4.375 29.1875 C0.905 29.1875 6.185 29.1875 11.625 29.1875 C11.625 37.1875 11.625 37.1875 10.625 42.1875 C5.675 42.1875 0.725 42.1875 -4.375 42.1875 C-4.375 59.0175 -4.375 75.8475 -4.375 93.1875 C-9.985 93.1875 -15.595 93.1875 -21.375 93.1875 C-21.375 76.3575 -21.375 59.5275 -21.375 42.1875 C-24.675 42.1875 -27.975 42.1875 -31.375 42.1875 C-31.375 37.8975 -31.375 33.6075 -31.375 29.1875 C-28.075 29.1875 -24.775 29.1875 -21.375 29.1875 C-21.42140625 28.1253125 -21.4678125 27.063125 -21.515625 25.96875 C-21.99294008 10.55620948 -21.99294008 10.55620948 -17.375 5.1875 C-11.61283024 0.50573707 -7.27884994 0.03632161 0 0 Z " fill="#000000" transform="translate(372.375,485.8125)"/>
<path d="M0 0 C0.495 7.425 0.495 7.425 1 15 C-0.13759766 15.40532959 -1.27519531 15.81065918 -2.44726562 16.22827148 C-10.63394881 19.52432109 -10.63394881 19.52432109 -15.91308594 26.17218018 C-17.20755455 32.4103266 -16.7962469 38.73843655 -16.5 45.0625 C-16.46792368 46.99663704 -16.44311479 48.93090904 -16.42578125 50.86523438 C-16.36777193 55.58254302 -16.21099912 60.28715664 -16 65 C-21.61 65 -27.22 65 -33 65 C-33 43.88 -33 22.76 -33 1 C-28.05 1 -23.1 1 -18 1 C-18 2.65 -18 4.3 -18 6 C-16.95199219 5.48308594 -15.90398437 4.96617187 -14.82421875 4.43359375 C-13.44556217 3.767712 -12.06664207 3.10237565 -10.6875 2.4375 C-9.99720703 2.09525391 -9.30691406 1.75300781 -8.59570312 1.40039062 C-3.33984375 -1.11328125 -3.33984375 -1.11328125 0 0 Z " fill="#000000" transform="translate(483,514)"/>
<path d="M0 0 C0.495 7.425 0.495 7.425 1 15 C-0.13759766 15.40532959 -1.27519531 15.81065918 -2.44726562 16.22827148 C-10.63394881 19.52432109 -10.63394881 19.52432109 -15.91308594 26.17218018 C-17.20755455 32.4103266 -16.7962469 38.73843655 -16.5 45.0625 C-16.46792368 46.99663704 -16.44311479 48.93090904 -16.42578125 50.86523438 C-16.36777193 55.58254302 -16.21099912 60.28715664 -16 65 C-21.61 65 -27.22 65 -33 65 C-33 43.88 -33 22.76 -33 1 C-28.05 1 -23.1 1 -18 1 C-18 2.65 -18 4.3 -18 6 C-16.95199219 5.48308594 -15.90398437 4.96617187 -14.82421875 4.43359375 C-13.44556217 3.767712 -12.06664207 3.10237565 -10.6875 2.4375 C-9.99720703 2.09525391 -9.30691406 1.75300781 -8.59570312 1.40039062 C-3.33984375 -1.11328125 -3.33984375 -1.11328125 0 0 Z " fill="#000000" transform="translate(242,514)"/>
<path d="M0 0 C0.495 7.425 0.495 7.425 1 15 C-0.13759766 15.40532959 -1.27519531 15.81065918 -2.44726562 16.22827148 C-10.63394881 19.52432109 -10.63394881 19.52432109 -15.91308594 26.17218018 C-17.20755455 32.4103266 -16.7962469 38.73843655 -16.5 45.0625 C-16.46792368 46.99663704 -16.44311479 48.93090904 -16.42578125 50.86523438 C-16.36777193 55.58254302 -16.21099912 60.28715664 -16 65 C-21.61 65 -27.22 65 -33 65 C-33 43.88 -33 22.76 -33 1 C-28.05 1 -23.1 1 -18 1 C-17.67 2.65 -17.34 4.3 -17 6 C-16.02417969 5.48308594 -15.04835938 4.96617187 -14.04296875 4.43359375 C-12.75808418 3.76770467 -11.47291285 3.10236872 -10.1875 2.4375 C-9.54490234 2.09525391 -8.90230469 1.75300781 -8.24023438 1.40039062 C-3.33984375 -1.11328125 -3.33984375 -1.11328125 0 0 Z " fill="#000000" transform="translate(281,514)"/>
<path d="M0 0 C1.98 0 3.96 0 6 0 C6 2.64 6 5.28 6 8 C8.31 8 10.62 8 13 8 C13 5.36 13 2.72 13 0 C14.65 0 16.3 0 18 0 C18 7.26 18 14.52 18 22 C16.35 22 14.7 22 13 22 C13 19.03 13 16.06 13 13 C10.69 13 8.38 13 6 13 C6 15.97 6 18.94 6 22 C4.02 22 2.04 22 0 22 C0 14.74 0 7.48 0 0 Z " fill="#000000" transform="translate(96,453)"/>
<path d="M0 0 C9.1796875 -0.1953125 9.1796875 -0.1953125 12 0 C14 2 14 2 14.265625 4.96875 C14.26046875 6.1340625 14.2553125 7.299375 14.25 8.5 C14.25515625 9.6653125 14.2603125 10.830625 14.265625 12.03125 C14 15 14 15 12 17 C8.375 17.125 8.375 17.125 5 17 C5 18.98 5 20.96 5 23 C3.35 23 1.7 23 0 23 C0 15.41 0 7.82 0 0 Z M5 5 C5 7.31 5 9.62 5 12 C6.32 12.33 7.64 12.66 9 13 C9 10.36 9 7.72 9 5 C7.68 5 6.36 5 5 5 Z " fill="#000000" transform="translate(212,458)"/>
<path d="M0 0 C2.475 0.495 2.475 0.495 5 1 C5 2.98 5 4.96 5 7 C5.66 6.67 6.32 6.34 7 6 C10.0625 5.875 10.0625 5.875 13 6 C14 7 14 7 14.09765625 10.59765625 C14.0909822 12.08596867 14.07902183 13.57426432 14.0625 15.0625 C14.05798828 15.82111328 14.05347656 16.57972656 14.04882812 17.36132812 C14.0370068 19.24091871 14.01907078 21.12046899 14 23 C12.35 23 10.7 23 9 23 C9 19.04 9 15.08 9 11 C8.01 11.33 7.02 11.66 6 12 C5.67 15.63 5.34 19.26 5 23 C3.35 23 1.7 23 0 23 C0 15.41 0 7.82 0 0 Z " fill="#000000" transform="translate(145,452)"/>
<path d="M0 0 C2.19921875 1.171875 2.19921875 1.171875 4 3 C4.49609375 5.59375 4.49609375 5.59375 4.4375 8.5 C4.43621094 9.4590625 4.43492187 10.418125 4.43359375 11.40625 C4 14 4 14 2.72265625 15.82421875 C0.64208068 17.24429414 -0.49965145 17.37406161 -3 17.3125 C-4.0209375 17.30669922 -4.0209375 17.30669922 -5.0625 17.30078125 C-7 17 -7 17 -10 15 C-11.40449969 10.78650094 -11.67828466 6.84105837 -10.125 2.625 C-7.61858041 -0.99538385 -4.032431 -0.27809869 0 0 Z M-4 4 C-6.28728734 5.83883881 -6.28728734 5.83883881 -6.125 8.625 C-6.08375 9.40875 -6.0425 10.1925 -6 11 C-4.02 11.99 -4.02 11.99 -2 13 C-0.58422523 11.81575674 -0.58422523 11.81575674 -0.9375 8.4375 C-0.958125 7.303125 -0.97875 6.16875 -1 5 C-1.99 4.67 -2.98 4.34 -4 4 Z " fill="#000000" transform="translate(195,458)"/>
<path d="M0 0 C1.43655854 -0.08131463 2.8744483 -0.13933559 4.3125 -0.1875 C5.51326172 -0.23970703 5.51326172 -0.23970703 6.73828125 -0.29296875 C9 0 9 0 10.78125 1.0625 C12.66475812 4.05679497 12.28345796 6.70102754 12.1875 10.1875 C12.16042969 11.45980469 12.13335937 12.73210937 12.10546875 14.04296875 C12.07066406 15.01878906 12.03585938 15.99460937 12 17 C10.04233719 17.08082094 8.08373272 17.13910778 6.125 17.1875 C4.48917969 17.23970703 4.48917969 17.23970703 2.8203125 17.29296875 C1.88960938 17.19628906 0.95890625 17.09960938 0 17 C-2 14 -2 14 -1.75 10.875 C-1.5025 9.92625 -1.255 8.9775 -1 8 C1.70879335 6.64560332 4.00933268 6.93498549 7 7 C6.67 6.34 6.34 5.68 6 5 C3.69 5 1.38 5 -1 5 C-0.67 3.35 -0.34 1.7 0 0 Z M3 11 C3 11.66 3 12.32 3 13 C4.32 12.67 5.64 12.34 7 12 C5.68 11.67 4.36 11.34 3 11 Z " fill="#000000" transform="translate(117,458)"/>
<path d="M0 0 C1.08667969 0.02707031 2.17335937 0.05414063 3.29296875 0.08203125 C4.54013672 0.13423828 4.54013672 0.13423828 5.8125 0.1875 C5.4825 1.8375 5.1525 3.4875 4.8125 5.1875 C2.1725 5.1875 -0.4675 5.1875 -3.1875 5.1875 C-3.1875 8.8175 -3.1875 12.4475 -3.1875 16.1875 C-0.5475 16.5175 2.0925 16.8475 4.8125 17.1875 C5.375 19.125 5.375 19.125 5.8125 21.1875 C4.16400947 22.83599053 2.26203365 22.3977571 0 22.4375 C-0.87269531 22.46328125 -1.74539062 22.4890625 -2.64453125 22.515625 C-5.84245193 22.10299007 -7.0734559 21.6506523 -9.1875 19.1875 C-9.56730738 16.36436485 -9.70250992 13.99785976 -9.625 11.1875 C-9.63208984 10.46304687 -9.63917969 9.73859375 -9.64648438 8.9921875 C-9.61157442 6.08123448 -9.51330967 3.75543535 -8.046875 1.19921875 C-5.31789913 -0.28566518 -3.07992856 -0.09935253 0 0 Z " fill="#000000" transform="translate(178.1875,452.8125)"/>
<path d="M0 0 C1.8871875 0.061875 1.8871875 0.061875 3.8125 0.125 C4.1425 0.785 4.4725 1.445 4.8125 2.125 C4.4825 3.115 4.1525 4.105 3.8125 5.125 C0.8425 4.63 0.8425 4.63 -2.1875 4.125 C-2.1875 4.785 -2.1875 5.445 -2.1875 6.125 C-1.218125 6.434375 -0.24875 6.74375 0.75 7.0625 C3.8125 8.125 3.8125 8.125 4.8125 9.125 C5 12.0625 5 12.0625 4.8125 15.125 C2.8125 17.125 2.8125 17.125 0.6484375 17.3203125 C-0.16367188 17.29710937 -0.97578125 17.27390625 -1.8125 17.25 C-2.62976563 17.23195313 -3.44703125 17.21390625 -4.2890625 17.1953125 C-4.91554687 17.17210937 -5.54203125 17.14890625 -6.1875 17.125 C-6.5175 15.475 -6.8475 13.825 -7.1875 12.125 C-4.8775 12.455 -2.5675 12.785 -0.1875 13.125 C-0.1875 12.465 -0.1875 11.805 -0.1875 11.125 C-2.4975 10.465 -4.8075 9.805 -7.1875 9.125 C-7.375 5.75 -7.375 5.75 -7.1875 2.125 C-4.09861478 0.06574319 -3.47814073 -0.1140374 0 0 Z " fill="#000000" transform="translate(138.1875,457.875)"/>
<path d="M0 0 C2.97 0 5.94 0 9 0 C9.1875 2.375 9.1875 2.375 9 5 C8.01 5.66 7.02 6.32 6 7 C5.41810734 9.42521494 5.41810734 9.42521494 5.3125 12.125 C5.24675781 13.03507812 5.18101562 13.94515625 5.11328125 14.8828125 C5.07589844 15.58148438 5.03851563 16.28015625 5 17 C3.35 17 1.7 17 0 17 C0 11.39 0 5.78 0 0 Z " fill="#000000" transform="translate(201,458)"/>
<path d="M0 0 C1.65 0 3.3 0 5 0 C5 5.61 5 11.22 5 17 C3.35 17 1.7 17 0 17 C0 11.39 0 5.78 0 0 Z " fill="#000000" transform="translate(162,458)"/>
<path d="M0 0 C1.65 0 3.3 0 5 0 C5 1.32 5 2.64 5 4 C3.35 4 1.7 4 0 4 C0 2.68 0 1.36 0 0 Z " fill="#000000" transform="translate(162,453)"/>
</svg>
